<svg xmlns="http://www.w3.org/2000/svg" viewBox="100 0 1440 330" id="headerSVG">
  <path fill="#2860ff" fill-opacity="1"
    d="M0,160L34.3,154.7C68.6,149,137,139,206,154.7C274.3,171,343,213,411,234.7C480,256,549,256,617,245.3C685.7,235,754,213,823,176C891.4,139,960,85,1029,69.3C1097.1,53,1166,75,1234,106.7C1302.9,139,1371,181,1406,202.7L1440,224L1440,0L1405.7,0C1371.4,0,1303,0,1234,0C1165.7,0,1097,0,1029,0C960,0,891,0,823,0C754.3,0,686,0,617,0C548.6,0,480,0,411,0C342.9,0,274,0,206,0C137.1,0,69,0,34,0L0,0Z">
  </path>
</svg>